<mxfile host="app.diagrams.net" modified="2023-10-25T15:10:08.065Z" agent="Mozilla/5.0 (Windows NT 10.0; Win64; x64) AppleWebKit/537.36 (KHTML, like Gecko) Chrome/118.0.0.0 Safari/537.36" etag="EyQ6sCew8Bi5yZXu3SYk" version="22.0.8" type="github">
  <diagram name="Page-1" id="c7488fd3-1785-93aa-aadb-54a6760d102a">
    <mxGraphModel dx="777" dy="822" grid="1" gridSize="10" guides="1" tooltips="1" connect="1" arrows="1" fold="1" page="1" pageScale="1" pageWidth="1100" pageHeight="850" background="none" math="0" shadow="0">
      <root>
        <mxCell id="0" />
        <mxCell id="1" parent="0" />
        <mxCell id="_BeNPTBt2GoaL-aBjM4o-23" style="edgeStyle=orthogonalEdgeStyle;rounded=0;orthogonalLoop=1;jettySize=auto;html=1;exitX=0.5;exitY=1;exitDx=0;exitDy=0;entryX=0.5;entryY=0;entryDx=0;entryDy=0;" edge="1" parent="1" source="_BeNPTBt2GoaL-aBjM4o-5" target="_BeNPTBt2GoaL-aBjM4o-18">
          <mxGeometry relative="1" as="geometry" />
        </mxCell>
        <mxCell id="_BeNPTBt2GoaL-aBjM4o-48" value="用户信息" style="edgeLabel;html=1;align=center;verticalAlign=middle;resizable=0;points=[];" vertex="1" connectable="0" parent="_BeNPTBt2GoaL-aBjM4o-23">
          <mxGeometry x="-0.13" y="2" relative="1" as="geometry">
            <mxPoint x="28" y="5" as="offset" />
          </mxGeometry>
        </mxCell>
        <mxCell id="_BeNPTBt2GoaL-aBjM4o-24" style="edgeStyle=orthogonalEdgeStyle;rounded=0;orthogonalLoop=1;jettySize=auto;html=1;exitX=1;exitY=0.5;exitDx=0;exitDy=0;entryX=0;entryY=0.5;entryDx=0;entryDy=0;" edge="1" parent="1" source="_BeNPTBt2GoaL-aBjM4o-5" target="_BeNPTBt2GoaL-aBjM4o-6">
          <mxGeometry relative="1" as="geometry" />
        </mxCell>
        <mxCell id="_BeNPTBt2GoaL-aBjM4o-49" value="用户信息" style="edgeLabel;html=1;align=center;verticalAlign=middle;resizable=0;points=[];" vertex="1" connectable="0" parent="_BeNPTBt2GoaL-aBjM4o-24">
          <mxGeometry x="-0.196" y="-4" relative="1" as="geometry">
            <mxPoint x="10" y="-14" as="offset" />
          </mxGeometry>
        </mxCell>
        <mxCell id="_BeNPTBt2GoaL-aBjM4o-5" value="注册用户" style="ellipse;whiteSpace=wrap;html=1;aspect=fixed;" vertex="1" parent="1">
          <mxGeometry x="270" y="190" width="80" height="80" as="geometry" />
        </mxCell>
        <mxCell id="_BeNPTBt2GoaL-aBjM4o-25" style="edgeStyle=orthogonalEdgeStyle;rounded=0;orthogonalLoop=1;jettySize=auto;html=1;exitX=0.5;exitY=1;exitDx=0;exitDy=0;entryX=0.5;entryY=0;entryDx=0;entryDy=0;" edge="1" parent="1" source="_BeNPTBt2GoaL-aBjM4o-6" target="_BeNPTBt2GoaL-aBjM4o-19">
          <mxGeometry relative="1" as="geometry" />
        </mxCell>
        <mxCell id="_BeNPTBt2GoaL-aBjM4o-50" value="邮件账号信息" style="edgeLabel;html=1;align=center;verticalAlign=middle;resizable=0;points=[];" vertex="1" connectable="0" parent="_BeNPTBt2GoaL-aBjM4o-25">
          <mxGeometry x="-0.005" y="-1" relative="1" as="geometry">
            <mxPoint x="41" as="offset" />
          </mxGeometry>
        </mxCell>
        <mxCell id="_BeNPTBt2GoaL-aBjM4o-26" style="edgeStyle=orthogonalEdgeStyle;rounded=0;orthogonalLoop=1;jettySize=auto;html=1;exitX=1;exitY=0.5;exitDx=0;exitDy=0;entryX=0;entryY=0.5;entryDx=0;entryDy=0;" edge="1" parent="1" source="_BeNPTBt2GoaL-aBjM4o-6" target="_BeNPTBt2GoaL-aBjM4o-7">
          <mxGeometry relative="1" as="geometry" />
        </mxCell>
        <mxCell id="_BeNPTBt2GoaL-aBjM4o-6" value="添加邮件账号" style="ellipse;whiteSpace=wrap;html=1;aspect=fixed;" vertex="1" parent="1">
          <mxGeometry x="450" y="190" width="80" height="80" as="geometry" />
        </mxCell>
        <mxCell id="_BeNPTBt2GoaL-aBjM4o-27" style="edgeStyle=orthogonalEdgeStyle;rounded=0;orthogonalLoop=1;jettySize=auto;html=1;exitX=1;exitY=0.5;exitDx=0;exitDy=0;entryX=0;entryY=0.5;entryDx=0;entryDy=0;" edge="1" parent="1" source="_BeNPTBt2GoaL-aBjM4o-7" target="_BeNPTBt2GoaL-aBjM4o-20">
          <mxGeometry relative="1" as="geometry" />
        </mxCell>
        <mxCell id="_BeNPTBt2GoaL-aBjM4o-54" value="地址簿信息" style="edgeLabel;html=1;align=center;verticalAlign=middle;resizable=0;points=[];" vertex="1" connectable="0" parent="_BeNPTBt2GoaL-aBjM4o-27">
          <mxGeometry x="-0.36" y="-2" relative="1" as="geometry">
            <mxPoint x="8" y="-12" as="offset" />
          </mxGeometry>
        </mxCell>
        <mxCell id="_BeNPTBt2GoaL-aBjM4o-28" style="edgeStyle=orthogonalEdgeStyle;rounded=0;orthogonalLoop=1;jettySize=auto;html=1;exitX=0.5;exitY=1;exitDx=0;exitDy=0;entryX=0.5;entryY=0;entryDx=0;entryDy=0;" edge="1" parent="1" source="_BeNPTBt2GoaL-aBjM4o-7" target="_BeNPTBt2GoaL-aBjM4o-8">
          <mxGeometry relative="1" as="geometry" />
        </mxCell>
        <mxCell id="_BeNPTBt2GoaL-aBjM4o-7" value="添加联系人" style="ellipse;whiteSpace=wrap;html=1;aspect=fixed;" vertex="1" parent="1">
          <mxGeometry x="710" y="190" width="80" height="80" as="geometry" />
        </mxCell>
        <mxCell id="_BeNPTBt2GoaL-aBjM4o-29" style="edgeStyle=orthogonalEdgeStyle;rounded=0;orthogonalLoop=1;jettySize=auto;html=1;exitX=1;exitY=0.5;exitDx=0;exitDy=0;" edge="1" parent="1" source="_BeNPTBt2GoaL-aBjM4o-8" target="_BeNPTBt2GoaL-aBjM4o-21">
          <mxGeometry relative="1" as="geometry" />
        </mxCell>
        <mxCell id="_BeNPTBt2GoaL-aBjM4o-31" style="edgeStyle=orthogonalEdgeStyle;rounded=0;orthogonalLoop=1;jettySize=auto;html=1;exitX=1;exitY=0.5;exitDx=0;exitDy=0;entryX=0;entryY=0.5;entryDx=0;entryDy=0;" edge="1" parent="1" source="_BeNPTBt2GoaL-aBjM4o-8" target="_BeNPTBt2GoaL-aBjM4o-22">
          <mxGeometry relative="1" as="geometry" />
        </mxCell>
        <mxCell id="_BeNPTBt2GoaL-aBjM4o-32" style="edgeStyle=orthogonalEdgeStyle;rounded=0;orthogonalLoop=1;jettySize=auto;html=1;exitX=0.5;exitY=1;exitDx=0;exitDy=0;entryX=0.5;entryY=0;entryDx=0;entryDy=0;" edge="1" parent="1" source="_BeNPTBt2GoaL-aBjM4o-8" target="_BeNPTBt2GoaL-aBjM4o-9">
          <mxGeometry relative="1" as="geometry" />
        </mxCell>
        <mxCell id="_BeNPTBt2GoaL-aBjM4o-8" value="发送邮件" style="ellipse;whiteSpace=wrap;html=1;aspect=fixed;" vertex="1" parent="1">
          <mxGeometry x="710" y="380" width="80" height="80" as="geometry" />
        </mxCell>
        <mxCell id="_BeNPTBt2GoaL-aBjM4o-37" style="edgeStyle=orthogonalEdgeStyle;rounded=0;orthogonalLoop=1;jettySize=auto;html=1;exitX=1;exitY=0.5;exitDx=0;exitDy=0;entryX=0;entryY=0.5;entryDx=0;entryDy=0;" edge="1" parent="1" source="_BeNPTBt2GoaL-aBjM4o-9" target="_BeNPTBt2GoaL-aBjM4o-33">
          <mxGeometry relative="1" as="geometry" />
        </mxCell>
        <mxCell id="_BeNPTBt2GoaL-aBjM4o-39" style="edgeStyle=orthogonalEdgeStyle;rounded=0;orthogonalLoop=1;jettySize=auto;html=1;exitX=1;exitY=0.5;exitDx=0;exitDy=0;entryX=0;entryY=0.5;entryDx=0;entryDy=0;" edge="1" parent="1" source="_BeNPTBt2GoaL-aBjM4o-9" target="_BeNPTBt2GoaL-aBjM4o-34">
          <mxGeometry relative="1" as="geometry" />
        </mxCell>
        <mxCell id="_BeNPTBt2GoaL-aBjM4o-40" style="edgeStyle=orthogonalEdgeStyle;rounded=0;orthogonalLoop=1;jettySize=auto;html=1;exitX=0;exitY=0.5;exitDx=0;exitDy=0;entryX=1;entryY=0.5;entryDx=0;entryDy=0;" edge="1" parent="1" source="_BeNPTBt2GoaL-aBjM4o-9" target="_BeNPTBt2GoaL-aBjM4o-11">
          <mxGeometry relative="1" as="geometry" />
        </mxCell>
        <mxCell id="_BeNPTBt2GoaL-aBjM4o-9" value="接收邮件" style="ellipse;whiteSpace=wrap;html=1;aspect=fixed;" vertex="1" parent="1">
          <mxGeometry x="710" y="550" width="80" height="80" as="geometry" />
        </mxCell>
        <mxCell id="_BeNPTBt2GoaL-aBjM4o-42" style="edgeStyle=orthogonalEdgeStyle;rounded=0;orthogonalLoop=1;jettySize=auto;html=1;exitX=0.5;exitY=1;exitDx=0;exitDy=0;entryX=0.5;entryY=0;entryDx=0;entryDy=0;" edge="1" parent="1" source="_BeNPTBt2GoaL-aBjM4o-11" target="_BeNPTBt2GoaL-aBjM4o-41">
          <mxGeometry relative="1" as="geometry" />
        </mxCell>
        <mxCell id="_BeNPTBt2GoaL-aBjM4o-45" style="edgeStyle=orthogonalEdgeStyle;rounded=0;orthogonalLoop=1;jettySize=auto;html=1;exitX=0;exitY=0.5;exitDx=0;exitDy=0;" edge="1" parent="1" source="_BeNPTBt2GoaL-aBjM4o-11" target="_BeNPTBt2GoaL-aBjM4o-12">
          <mxGeometry relative="1" as="geometry" />
        </mxCell>
        <mxCell id="_BeNPTBt2GoaL-aBjM4o-11" value="查看邮件" style="ellipse;whiteSpace=wrap;html=1;aspect=fixed;" vertex="1" parent="1">
          <mxGeometry x="450" y="550" width="80" height="80" as="geometry" />
        </mxCell>
        <mxCell id="_BeNPTBt2GoaL-aBjM4o-44" style="edgeStyle=orthogonalEdgeStyle;rounded=0;orthogonalLoop=1;jettySize=auto;html=1;exitX=0.5;exitY=1;exitDx=0;exitDy=0;entryX=0.5;entryY=0;entryDx=0;entryDy=0;" edge="1" parent="1" source="_BeNPTBt2GoaL-aBjM4o-12" target="_BeNPTBt2GoaL-aBjM4o-43">
          <mxGeometry relative="1" as="geometry" />
        </mxCell>
        <mxCell id="_BeNPTBt2GoaL-aBjM4o-12" value="删除邮件" style="ellipse;whiteSpace=wrap;html=1;aspect=fixed;" vertex="1" parent="1">
          <mxGeometry x="270" y="550" width="80" height="80" as="geometry" />
        </mxCell>
        <mxCell id="_BeNPTBt2GoaL-aBjM4o-18" value="&lt;span style=&quot;white-space: pre;&quot;&gt;&#x9;&lt;/span&gt;&lt;span style=&quot;white-space: pre;&quot;&gt;&#x9;&lt;/span&gt;用户" style="html=1;dashed=0;whiteSpace=wrap;shape=mxgraph.dfd.dataStoreID;align=left;spacingLeft=3;points=[[0,0],[0.5,0],[1,0],[0,0.5],[1,0.5],[0,1],[0.5,1],[1,1]];" vertex="1" parent="1">
          <mxGeometry x="260" y="350" width="100" height="30" as="geometry" />
        </mxCell>
        <mxCell id="_BeNPTBt2GoaL-aBjM4o-19" value="&lt;span style=&quot;white-space: pre;&quot;&gt;&#x9;&lt;/span&gt;邮件账号" style="html=1;dashed=0;whiteSpace=wrap;shape=mxgraph.dfd.dataStoreID;align=left;spacingLeft=3;points=[[0,0],[0.5,0],[1,0],[0,0.5],[1,0.5],[0,1],[0.5,1],[1,1]];" vertex="1" parent="1">
          <mxGeometry x="440" y="350" width="100" height="30" as="geometry" />
        </mxCell>
        <mxCell id="_BeNPTBt2GoaL-aBjM4o-20" value="&lt;span style=&quot;white-space: pre;&quot;&gt;&#x9;&lt;span style=&quot;white-space: pre;&quot;&gt;&#x9;&lt;/span&gt;地址簿&lt;/span&gt;" style="html=1;dashed=0;whiteSpace=wrap;shape=mxgraph.dfd.dataStoreID;align=left;spacingLeft=3;points=[[0,0],[0.5,0],[1,0],[0,0.5],[1,0.5],[0,1],[0.5,1],[1,1]];" vertex="1" parent="1">
          <mxGeometry x="860" y="215" width="100" height="30" as="geometry" />
        </mxCell>
        <mxCell id="_BeNPTBt2GoaL-aBjM4o-21" value="&lt;span style=&quot;white-space: pre;&quot;&gt;&#x9;&lt;/span&gt;&lt;span style=&quot;white-space: pre;&quot;&gt;&#x9;&lt;/span&gt;邮件" style="html=1;dashed=0;whiteSpace=wrap;shape=mxgraph.dfd.dataStoreID;align=left;spacingLeft=3;points=[[0,0],[0.5,0],[1,0],[0,0.5],[1,0.5],[0,1],[0.5,1],[1,1]];" vertex="1" parent="1">
          <mxGeometry x="900" y="405" width="100" height="30" as="geometry" />
        </mxCell>
        <mxCell id="_BeNPTBt2GoaL-aBjM4o-22" value="&lt;span style=&quot;white-space: pre;&quot;&gt;&#x9;&lt;/span&gt;&lt;span style=&quot;white-space: pre;&quot;&gt;&#x9;&lt;/span&gt;附件" style="html=1;dashed=0;whiteSpace=wrap;shape=mxgraph.dfd.dataStoreID;align=left;spacingLeft=3;points=[[0,0],[0.5,0],[1,0],[0,0.5],[1,0.5],[0,1],[0.5,1],[1,1]];" vertex="1" parent="1">
          <mxGeometry x="900" y="460" width="100" height="30" as="geometry" />
        </mxCell>
        <mxCell id="_BeNPTBt2GoaL-aBjM4o-33" value="&lt;span style=&quot;white-space: pre;&quot;&gt;&#x9;&lt;/span&gt;&lt;span style=&quot;white-space: pre;&quot;&gt;&#x9;&lt;/span&gt;邮件" style="html=1;dashed=0;whiteSpace=wrap;shape=mxgraph.dfd.dataStoreID;align=left;spacingLeft=3;points=[[0,0],[0.5,0],[1,0],[0,0.5],[1,0.5],[0,1],[0.5,1],[1,1]];" vertex="1" parent="1">
          <mxGeometry x="870" y="575" width="100" height="30" as="geometry" />
        </mxCell>
        <mxCell id="_BeNPTBt2GoaL-aBjM4o-34" value="&lt;span style=&quot;white-space: pre;&quot;&gt;&#x9;&lt;/span&gt;&lt;span style=&quot;white-space: pre;&quot;&gt;&#x9;&lt;/span&gt;附件" style="html=1;dashed=0;whiteSpace=wrap;shape=mxgraph.dfd.dataStoreID;align=left;spacingLeft=3;points=[[0,0],[0.5,0],[1,0],[0,0.5],[1,0.5],[0,1],[0.5,1],[1,1]];" vertex="1" parent="1">
          <mxGeometry x="870" y="625" width="100" height="30" as="geometry" />
        </mxCell>
        <mxCell id="_BeNPTBt2GoaL-aBjM4o-41" value="&lt;span style=&quot;white-space: pre;&quot;&gt;&#x9;&lt;/span&gt;&lt;span style=&quot;white-space: pre;&quot;&gt;&#x9;&lt;/span&gt;邮件" style="html=1;dashed=0;whiteSpace=wrap;shape=mxgraph.dfd.dataStoreID;align=left;spacingLeft=3;points=[[0,0],[0.5,0],[1,0],[0,0.5],[1,0.5],[0,1],[0.5,1],[1,1]];" vertex="1" parent="1">
          <mxGeometry x="440" y="690" width="100" height="30" as="geometry" />
        </mxCell>
        <mxCell id="_BeNPTBt2GoaL-aBjM4o-43" value="&lt;span style=&quot;white-space: pre;&quot;&gt;&#x9;&lt;/span&gt;&lt;span style=&quot;white-space: pre;&quot;&gt;&#x9;&lt;/span&gt;邮件" style="html=1;dashed=0;whiteSpace=wrap;shape=mxgraph.dfd.dataStoreID;align=left;spacingLeft=3;points=[[0,0],[0.5,0],[1,0],[0,0.5],[1,0.5],[0,1],[0.5,1],[1,1]];" vertex="1" parent="1">
          <mxGeometry x="260" y="690" width="100" height="30" as="geometry" />
        </mxCell>
        <mxCell id="_BeNPTBt2GoaL-aBjM4o-52" style="edgeStyle=orthogonalEdgeStyle;rounded=0;orthogonalLoop=1;jettySize=auto;html=1;exitX=0.5;exitY=1;exitDx=0;exitDy=0;entryX=0.5;entryY=0;entryDx=0;entryDy=0;" edge="1" parent="1" source="_BeNPTBt2GoaL-aBjM4o-51" target="_BeNPTBt2GoaL-aBjM4o-7">
          <mxGeometry relative="1" as="geometry" />
        </mxCell>
        <mxCell id="_BeNPTBt2GoaL-aBjM4o-53" value="用户名" style="edgeLabel;html=1;align=center;verticalAlign=middle;resizable=0;points=[];" vertex="1" connectable="0" parent="_BeNPTBt2GoaL-aBjM4o-52">
          <mxGeometry x="-0.2733" y="-1" relative="1" as="geometry">
            <mxPoint x="41" y="-12" as="offset" />
          </mxGeometry>
        </mxCell>
        <mxCell id="_BeNPTBt2GoaL-aBjM4o-51" value="&lt;span style=&quot;white-space: pre;&quot;&gt;&#x9;&lt;/span&gt;&lt;span style=&quot;white-space: pre;&quot;&gt;&#x9;&lt;/span&gt;用户" style="html=1;dashed=0;whiteSpace=wrap;shape=mxgraph.dfd.dataStoreID;align=left;spacingLeft=3;points=[[0,0],[0.5,0],[1,0],[0,0.5],[1,0.5],[0,1],[0.5,1],[1,1]];" vertex="1" parent="1">
          <mxGeometry x="700" y="100" width="100" height="30" as="geometry" />
        </mxCell>
        <mxCell id="_BeNPTBt2GoaL-aBjM4o-59" style="edgeStyle=orthogonalEdgeStyle;rounded=0;orthogonalLoop=1;jettySize=auto;html=1;exitX=0.5;exitY=1;exitDx=0;exitDy=0;entryX=0;entryY=0.5;entryDx=0;entryDy=0;" edge="1" parent="1" source="_BeNPTBt2GoaL-aBjM4o-58" target="_BeNPTBt2GoaL-aBjM4o-8">
          <mxGeometry relative="1" as="geometry" />
        </mxCell>
        <mxCell id="_BeNPTBt2GoaL-aBjM4o-60" value="邮件地址" style="edgeLabel;html=1;align=center;verticalAlign=middle;resizable=0;points=[];" vertex="1" connectable="0" parent="_BeNPTBt2GoaL-aBjM4o-59">
          <mxGeometry x="-0.2213" y="2" relative="1" as="geometry">
            <mxPoint x="12" y="-28" as="offset" />
          </mxGeometry>
        </mxCell>
        <mxCell id="_BeNPTBt2GoaL-aBjM4o-58" value="&lt;span style=&quot;white-space: pre;&quot;&gt;&#x9;&lt;/span&gt;邮件账号" style="html=1;dashed=0;whiteSpace=wrap;shape=mxgraph.dfd.dataStoreID;align=left;spacingLeft=3;points=[[0,0],[0.5,0],[1,0],[0,0.5],[1,0.5],[0,1],[0.5,1],[1,1]];" vertex="1" parent="1">
          <mxGeometry x="560" y="350" width="100" height="30" as="geometry" />
        </mxCell>
        <mxCell id="_BeNPTBt2GoaL-aBjM4o-62" style="edgeStyle=orthogonalEdgeStyle;rounded=0;orthogonalLoop=1;jettySize=auto;html=1;exitX=0.5;exitY=0;exitDx=0;exitDy=0;entryX=0;entryY=0.5;entryDx=0;entryDy=0;" edge="1" parent="1" source="_BeNPTBt2GoaL-aBjM4o-61" target="_BeNPTBt2GoaL-aBjM4o-8">
          <mxGeometry relative="1" as="geometry" />
        </mxCell>
        <mxCell id="_BeNPTBt2GoaL-aBjM4o-63" value="邮件地址" style="edgeLabel;html=1;align=center;verticalAlign=middle;resizable=0;points=[];" vertex="1" connectable="0" parent="_BeNPTBt2GoaL-aBjM4o-62">
          <mxGeometry x="-0.7725" relative="1" as="geometry">
            <mxPoint x="30" as="offset" />
          </mxGeometry>
        </mxCell>
        <mxCell id="_BeNPTBt2GoaL-aBjM4o-61" value="&lt;span style=&quot;white-space: pre;&quot;&gt;&#x9;&lt;span style=&quot;white-space: pre;&quot;&gt;&#x9;&lt;/span&gt;地址簿&lt;/span&gt;" style="html=1;dashed=0;whiteSpace=wrap;shape=mxgraph.dfd.dataStoreID;align=left;spacingLeft=3;points=[[0,0],[0.5,0],[1,0],[0,0.5],[1,0.5],[0,1],[0.5,1],[1,1]];" vertex="1" parent="1">
          <mxGeometry x="560" y="440" width="100" height="30" as="geometry" />
        </mxCell>
        <mxCell id="_BeNPTBt2GoaL-aBjM4o-64" style="edgeStyle=orthogonalEdgeStyle;rounded=0;orthogonalLoop=1;jettySize=auto;html=1;exitX=0.5;exitY=1;exitDx=0;exitDy=0;" edge="1" parent="1" source="_BeNPTBt2GoaL-aBjM4o-34" target="_BeNPTBt2GoaL-aBjM4o-34">
          <mxGeometry relative="1" as="geometry" />
        </mxCell>
        <mxCell id="_BeNPTBt2GoaL-aBjM4o-66" style="edgeStyle=orthogonalEdgeStyle;rounded=0;orthogonalLoop=1;jettySize=auto;html=1;exitX=0.5;exitY=1;exitDx=0;exitDy=0;entryX=0.5;entryY=0;entryDx=0;entryDy=0;" edge="1" parent="1" source="_BeNPTBt2GoaL-aBjM4o-65" target="_BeNPTBt2GoaL-aBjM4o-11">
          <mxGeometry relative="1" as="geometry" />
        </mxCell>
        <mxCell id="_BeNPTBt2GoaL-aBjM4o-68" value="邮件状态" style="edgeLabel;html=1;align=center;verticalAlign=middle;resizable=0;points=[];" vertex="1" connectable="0" parent="_BeNPTBt2GoaL-aBjM4o-66">
          <mxGeometry x="-0.205" y="-1" relative="1" as="geometry">
            <mxPoint x="31" y="-22" as="offset" />
          </mxGeometry>
        </mxCell>
        <mxCell id="_BeNPTBt2GoaL-aBjM4o-69" value="邮件状态" style="edgeLabel;html=1;align=center;verticalAlign=middle;resizable=0;points=[];" vertex="1" connectable="0" parent="_BeNPTBt2GoaL-aBjM4o-66">
          <mxGeometry x="-0.205" y="-1" relative="1" as="geometry">
            <mxPoint x="-149" y="-22" as="offset" />
          </mxGeometry>
        </mxCell>
        <mxCell id="_BeNPTBt2GoaL-aBjM4o-65" value="&lt;span style=&quot;white-space: pre;&quot;&gt;&#x9;&lt;/span&gt;&lt;span style=&quot;white-space: pre;&quot;&gt;&#x9;&lt;/span&gt;邮件" style="html=1;dashed=0;whiteSpace=wrap;shape=mxgraph.dfd.dataStoreID;align=left;spacingLeft=3;points=[[0,0],[0.5,0],[1,0],[0,0.5],[1,0.5],[0,1],[0.5,1],[1,1]];" vertex="1" parent="1">
          <mxGeometry x="440" y="440" width="100" height="30" as="geometry" />
        </mxCell>
        <mxCell id="_BeNPTBt2GoaL-aBjM4o-67" style="edgeStyle=orthogonalEdgeStyle;rounded=0;orthogonalLoop=1;jettySize=auto;html=1;exitX=0.5;exitY=1;exitDx=0;exitDy=0;" edge="1" parent="1" source="_BeNPTBt2GoaL-aBjM4o-61" target="_BeNPTBt2GoaL-aBjM4o-61">
          <mxGeometry relative="1" as="geometry" />
        </mxCell>
        <mxCell id="_BeNPTBt2GoaL-aBjM4o-71" style="edgeStyle=orthogonalEdgeStyle;rounded=0;orthogonalLoop=1;jettySize=auto;html=1;exitX=0.5;exitY=1;exitDx=0;exitDy=0;entryX=0.5;entryY=0;entryDx=0;entryDy=0;" edge="1" parent="1" source="_BeNPTBt2GoaL-aBjM4o-70" target="_BeNPTBt2GoaL-aBjM4o-12">
          <mxGeometry relative="1" as="geometry" />
        </mxCell>
        <mxCell id="_BeNPTBt2GoaL-aBjM4o-70" value="&lt;span style=&quot;white-space: pre;&quot;&gt;&#x9;&lt;/span&gt;&lt;span style=&quot;white-space: pre;&quot;&gt;&#x9;&lt;/span&gt;邮件" style="html=1;dashed=0;whiteSpace=wrap;shape=mxgraph.dfd.dataStoreID;align=left;spacingLeft=3;points=[[0,0],[0.5,0],[1,0],[0,0.5],[1,0.5],[0,1],[0.5,1],[1,1]];" vertex="1" parent="1">
          <mxGeometry x="260" y="440" width="100" height="30" as="geometry" />
        </mxCell>
      </root>
    </mxGraphModel>
  </diagram>
</mxfile>
